# xmcd
#
# Track frame offsets:
#	150
#	14362
#	26392
#	42364
#	57399
#	75942
#	89760
#	107883
#	121041
#	135937
#	150443
#	161736
#
# Disc length: 2468 seconds
#
# Revision: 0
# Processed by: cddbd v1.5.1PL0 Copyright (c) Steve Scherf et al.
# Submitted via: dBpowerAMP V4.0
#
DISCID=8809a20c
DTITLE=ALTENOS DE LA  CIERRA -  CORRIDOS
DYEAR=1900
DGENRE=
TTITLE0=AL
TTITLE1=ALTENOS
TTITLE2=ALTENOS
TTITLE3=AaAa
TTITLE4=a
TTITLE5=a
TTITLE6=a
TTITLE7=a
TTITLE8=a
TTITLE9=a
TTITLE10=aa
TTITLE11=a
EXTD=
EXTT0=
EXTT1=
EXTT2=
EXTT3=
EXTT4=
EXTT5=
EXTT6=
EXTT7=
EXTT8=
EXTT9=
EXTT10=
EXTT11=
PLAYORDER=
